<?xml version="1.0" standalone="no"?>
<!DOCTYPE svg PUBLIC "-//W3C//DTD SVG 20010904//EN"
 "http://www.w3.org/TR/2001/REC-SVG-20010904/DTD/svg10.dtd">
<svg version="1.0" xmlns="http://www.w3.org/2000/svg"
 width="94.000000pt" height="94.000000pt" viewBox="0 0 94.000000 94.000000"
 preserveAspectRatio="xMidYMid meet">

<g transform="translate(0.000000,94.000000) scale(0.100000,-0.100000)"
fill="#000000" stroke="none">
<path d="M478 253 c7 -3 16 -2 19 1 4 3 -2 6 -13 5 -11 0 -14 -3 -6 -6z"/>
<path d="M355 241 c-9 -8 7 -21 25 -21 10 0 22 -5 26 -11 5 -8 -1 -10 -20 -7
-18 4 -26 1 -26 -8 0 -8 6 -14 13 -14 9 0 9 -2 -1 -8 -18 -12 42 -53 87 -59
27 -3 46 2 76 22 34 23 36 25 13 21 -14 -3 -37 -2 -49 3 -20 7 -17 9 24 15 25
4 49 11 52 16 4 6 -6 8 -22 5 -15 -3 -50 -1 -78 4 l-50 9 60 2 c68 2 122 17
70 20 -16 1 -67 5 -113 8 -46 4 -85 6 -87 3z"/>
</g>
</svg>
